<?xml version="1.0" encoding="utf-8"?>
<!-- Generator: Adobe Illustrator 19.0.0, SVG Export Plug-In . SVG Version: 6.00 Build 0)  -->
<svg version="1.1" id="Layer_1" xmlns="http://www.w3.org/2000/svg" xmlns:xlink="http://www.w3.org/1999/xlink" x="0px" y="0px"
	 viewBox="0 0 74 37" style="enable-background:new 0 0 74 37;" xml:space="preserve">
<style type="text/css">
	.st0{display:none;fill:#2D2D2D;}
	.st1{fill:#FFFFFF;}
	.st2{fill:url(#XMLID_63_);}
</style>
<rect id="XMLID_1_" x="-324" y="-119" class="st0" width="1010" height="533"/>
<g id="XMLID_2_">
	<path id="XMLID_4_" class="st1" d="M5.4,10.3c0-1.5,1.2-2.7,2.7-2.7h5.2c5.3,0,9.4,1.4,9.4,6.3c0,2.3-1.3,4.7-4.3,5.5v0.2
		c3.6,0.7,5.5,2.6,5.5,6c0,5.2-4.4,7.5-9.9,7.5H8.1c-1.5,0-2.7-1.2-2.7-2.7V10.3z M13,17.9c2.8,0,4.1-1.2,4.1-3.1
		c0-1.9-1.3-2.7-4-2.7h-2.7v5.8H13z M13.5,28.6c3.1,0,4.8-1.2,4.8-3.5c0-2.2-1.6-3.2-4.8-3.2h-3.2v6.7H13.5z"/>
	<linearGradient id="XMLID_63_" gradientUnits="userSpaceOnUse" x1="51.025" y1="20.547" x2="71.2107" y2="20.547">
		<stop  offset="0" style="stop-color:#FF9900"/>
		<stop  offset="3.743798e-002" style="stop-color:#FE9702"/>
		<stop  offset="0.6583" style="stop-color:#F57619"/>
		<stop  offset="1" style="stop-color:#F16A22"/>
	</linearGradient>
	<path id="XMLID_32_" class="st2" d="M53.8,7.6H54c1.5,0,2.8,1.2,2.8,2.8v11.5c0,5,1.6,6.7,4.4,6.7c2.8,0,4.5-1.7,4.5-6.7V10.4
		c0-1.5,1.2-2.8,2.8-2.8l0,0c1.5,0,2.8,1.2,2.8,2.8v10.9c0,8.5-3.5,12.2-10.1,12.2S51,29.8,51,21.2V10.4C51,8.8,52.3,7.6,53.8,7.6z"
		/>
</g>
<circle id="XMLID_34_" class="st1" cx="36.8" cy="19.8" r="3.2"/>
</svg>
