<?xml version="1.0" encoding="utf-8"?>
<!-- Generator: Adobe Illustrator 19.0.0, SVG Export Plug-In . SVG Version: 6.00 Build 0)  -->
<svg version="1.1" id="Layer_1" xmlns="http://www.w3.org/2000/svg" xmlns:xlink="http://www.w3.org/1999/xlink" x="0px" y="0px"
	 viewBox="0 0 260 40" style="enable-background:new 0 0 260 40;" xml:space="preserve">
<style type="text/css">
	.st0{fill:#FFFFFF;}
	.st1{fill:url(#XMLID_12_);}
</style>
<g id="XMLID_13_">
	<path id="XMLID_25_" class="st0" d="M10.4,12.2c0-1.5,1.2-2.6,2.6-2.6h5c5.2,0,9.1,1.4,9.1,6.1c0,2.2-1.3,4.6-4.2,5.4v0.2
		c3.5,0.6,5.4,2.5,5.4,5.8c0,5-4.3,7.3-9.6,7.3H13c-1.5,0-2.6-1.2-2.6-2.6V12.2z M17.8,19.6c2.7,0,3.9-1.2,3.9-3
		c0-1.9-1.3-2.6-3.9-2.6h-2.7v5.7H17.8z M18.3,30c3,0,4.6-1.1,4.6-3.4c0-2.2-1.6-3.1-4.6-3.1h-3.1V30H18.3z"/>
	<path id="XMLID_22_" class="st0" d="M62,28.5h-5.4c-0.7,0-1.2,0.4-1.4,1.1l-0.6,2.5c-0.4,1.4-1.6,2.3-3,2.3h0
		c-1.6,0-2.8-1.6-2.3-3.2l6.1-19.4c0.4-1.3,1.6-2.2,2.9-2.2h2.2c1.3,0,2.5,0.9,2.9,2.2l6.1,19.4c0.5,1.6-0.7,3.2-2.3,3.2H67
		c-1.4,0-2.6-0.9-3-2.3l-0.6-2.5C63.3,28.9,62.7,28.5,62,28.5z M60.1,24.1c0.9,0,1.6-0.9,1.4-1.8l-0.1-0.5c-0.4-1.4-1-3.7-1.4-5.5
		c-0.2-0.6-1.1-0.6-1.2,0c-0.5,1.9-1,3.8-1.4,5.5l-0.1,0.5c-0.2,0.9,0.4,1.8,1.4,1.8H60.1z"/>
	<path id="XMLID_20_" class="st0" d="M94,14.3h-3c-1.3,0-2.4-1.1-2.4-2.4v0c0-1.3,1.1-2.4,2.4-2.4h14.5c1.3,0,2.4,1.1,2.4,2.4v0
		c0,1.3-1.1,2.4-2.4,2.4h-3c-0.8,0-1.5,0.7-1.5,1.5V32c0,1.3-1.1,2.4-2.4,2.4h-0.9c-1.3,0-2.4-1.1-2.4-2.4V15.8
		C95.5,15,94.8,14.3,94,14.3z"/>
	<path id="XMLID_18_" class="st0" d="M134.2,14.3h-3.2c-1.3,0-2.4-1.1-2.4-2.4v0c0-1.3,1.1-2.4,2.4-2.4h14.5c1.3,0,2.4,1.1,2.4,2.4
		v0c0,1.3-1.1,2.4-2.4,2.4h-3.1c-0.7,0-1.3,0.6-1.3,1.3V32c0,1.3-1.1,2.4-2.4,2.4h-0.9c-1.3,0-2.4-1.1-2.4-2.4V15.6
		C135.5,14.9,134.9,14.3,134.2,14.3z"/>
	<path id="XMLID_16_" class="st0" d="M173.1,9.6h0.9c1.3,0,2.4,1.1,2.4,2.4v16.4c0,0.7,0.6,1.3,1.3,1.3h6.1c1.3,0,2.4,1.1,2.4,2.4v0
		c0,1.3-1.1,2.4-2.4,2.4h-10.7c-1.3,0-2.4-1.1-2.4-2.4V12C170.7,10.7,171.8,9.6,173.1,9.6z"/>
	<linearGradient id="XMLID_12_" gradientUnits="userSpaceOnUse" x1="236.0538" y1="22.2135" x2="255.7193" y2="22.2135">
		<stop  offset="0" style="stop-color:#FF9900"/>
		<stop  offset="3.743798e-002" style="stop-color:#FE9702"/>
		<stop  offset="0.6583" style="stop-color:#F57619"/>
		<stop  offset="1" style="stop-color:#F16A22"/>
	</linearGradient>
	<path id="XMLID_14_" class="st1" d="M238.7,9.6h0.2c1.5,0,2.7,1.2,2.7,2.7v11.2c0,4.9,1.5,6.5,4.3,6.5s4.4-1.7,4.4-6.5V12.3
		c0-1.5,1.2-2.7,2.7-2.7l0,0c1.5,0,2.7,1.2,2.7,2.7v10.6c0,8.3-3.4,11.9-9.8,11.9s-9.9-3.6-9.9-11.9V12.3
		C236.1,10.8,237.3,9.6,238.7,9.6z"/>
</g>
<circle id="XMLID_1_" class="st0" cx="211.5" cy="21.5" r="3.1"/>
</svg>
